<mxfile host="app.diagrams.net" modified="2021-07-11T08:01:48.073Z" agent="5.0 (Windows NT 10.0; Win64; x64) AppleWebKit/537.36 (KHTML, like Gecko) Chrome/91.0.4472.124 Safari/537.36" etag="VGnzpM0jKzY4pCMohsu3" version="14.8.5" type="github">
  <diagram id="dH_RASp1V9OqJG_c1ulC" name="Page-1">
    <mxGraphModel dx="1904" dy="912" grid="1" gridSize="10" guides="1" tooltips="1" connect="1" arrows="1" fold="1" page="1" pageScale="1" pageWidth="827" pageHeight="1169" math="0" shadow="0">
      <root>
        <mxCell id="0" />
        <mxCell id="1" parent="0" />
        <mxCell id="vMeKQv3sDf7Jr7zN37qQ-1" value="Người dùng" style="swimlane;whiteSpace=wrap" vertex="1" parent="1">
          <mxGeometry x="164.5" y="128" width="280" height="570" as="geometry" />
        </mxCell>
        <mxCell id="vMeKQv3sDf7Jr7zN37qQ-2" value="" style="ellipse;shape=startState;fillColor=#000000;strokeColor=#ff0000;" vertex="1" parent="vMeKQv3sDf7Jr7zN37qQ-1">
          <mxGeometry x="100" y="40" width="30" height="30" as="geometry" />
        </mxCell>
        <mxCell id="vMeKQv3sDf7Jr7zN37qQ-3" value="" style="edgeStyle=elbowEdgeStyle;elbow=horizontal;verticalAlign=bottom;endArrow=open;endSize=8;strokeColor=#FF0000;endFill=1;rounded=0" edge="1" parent="vMeKQv3sDf7Jr7zN37qQ-1" source="vMeKQv3sDf7Jr7zN37qQ-2" target="vMeKQv3sDf7Jr7zN37qQ-4">
          <mxGeometry x="100" y="40" as="geometry">
            <mxPoint x="115" y="110" as="targetPoint" />
          </mxGeometry>
        </mxCell>
        <mxCell id="vMeKQv3sDf7Jr7zN37qQ-4" value="Tru" style="" vertex="1" parent="vMeKQv3sDf7Jr7zN37qQ-1">
          <mxGeometry x="60" y="110" width="110" height="50" as="geometry" />
        </mxCell>
        <mxCell id="vMeKQv3sDf7Jr7zN37qQ-5" value="user action" style="" vertex="1" parent="vMeKQv3sDf7Jr7zN37qQ-1">
          <mxGeometry x="60" y="220" width="110" height="50" as="geometry" />
        </mxCell>
        <mxCell id="vMeKQv3sDf7Jr7zN37qQ-6" value="" style="endArrow=open;strokeColor=#FF0000;endFill=1;rounded=0" edge="1" parent="vMeKQv3sDf7Jr7zN37qQ-1" source="vMeKQv3sDf7Jr7zN37qQ-4" target="vMeKQv3sDf7Jr7zN37qQ-5">
          <mxGeometry relative="1" as="geometry" />
        </mxCell>
        <mxCell id="vMeKQv3sDf7Jr7zN37qQ-7" value="post command" style="" vertex="1" parent="vMeKQv3sDf7Jr7zN37qQ-1">
          <mxGeometry x="60" y="325" width="110" height="50" as="geometry" />
        </mxCell>
        <mxCell id="vMeKQv3sDf7Jr7zN37qQ-8" value="" style="endArrow=open;strokeColor=#FF0000;endFill=1;rounded=0" edge="1" parent="vMeKQv3sDf7Jr7zN37qQ-1" source="vMeKQv3sDf7Jr7zN37qQ-5" target="vMeKQv3sDf7Jr7zN37qQ-7">
          <mxGeometry relative="1" as="geometry" />
        </mxCell>
        <mxCell id="vMeKQv3sDf7Jr7zN37qQ-9" value="" style="edgeStyle=elbowEdgeStyle;elbow=horizontal;strokeColor=#FF0000;endArrow=open;endFill=1;rounded=0" edge="1" parent="vMeKQv3sDf7Jr7zN37qQ-1" source="vMeKQv3sDf7Jr7zN37qQ-7" target="vMeKQv3sDf7Jr7zN37qQ-4">
          <mxGeometry width="100" height="100" relative="1" as="geometry">
            <mxPoint x="160" y="290" as="sourcePoint" />
            <mxPoint x="260" y="190" as="targetPoint" />
            <Array as="points">
              <mxPoint x="30" y="250" />
            </Array>
          </mxGeometry>
        </mxCell>
        <mxCell id="vMeKQv3sDf7Jr7zN37qQ-10" value="Giao diện" style="swimlane;whiteSpace=wrap" vertex="1" parent="1">
          <mxGeometry x="444.5" y="128" width="280" height="570" as="geometry" />
        </mxCell>
        <mxCell id="vMeKQv3sDf7Jr7zN37qQ-11" value="" style="ellipse;shape=startState;fillColor=#000000;strokeColor=#ff0000;" vertex="1" parent="vMeKQv3sDf7Jr7zN37qQ-10">
          <mxGeometry x="60" y="40" width="30" height="30" as="geometry" />
        </mxCell>
        <mxCell id="vMeKQv3sDf7Jr7zN37qQ-12" value="" style="edgeStyle=elbowEdgeStyle;elbow=horizontal;verticalAlign=bottom;endArrow=open;endSize=8;strokeColor=#FF0000;endFill=1;rounded=0" edge="1" parent="vMeKQv3sDf7Jr7zN37qQ-10" source="vMeKQv3sDf7Jr7zN37qQ-11" target="vMeKQv3sDf7Jr7zN37qQ-13">
          <mxGeometry x="40" y="20" as="geometry">
            <mxPoint x="55" y="90" as="targetPoint" />
          </mxGeometry>
        </mxCell>
        <mxCell id="vMeKQv3sDf7Jr7zN37qQ-13" value="idle" style="" vertex="1" parent="vMeKQv3sDf7Jr7zN37qQ-10">
          <mxGeometry x="20" y="110" width="110" height="50" as="geometry" />
        </mxCell>
        <mxCell id="vMeKQv3sDf7Jr7zN37qQ-14" value="check for &#xa;new commands" style="" vertex="1" parent="vMeKQv3sDf7Jr7zN37qQ-10">
          <mxGeometry x="20" y="220" width="110" height="50" as="geometry" />
        </mxCell>
        <mxCell id="vMeKQv3sDf7Jr7zN37qQ-15" value="" style="endArrow=open;strokeColor=#FF0000;endFill=1;rounded=0" edge="1" parent="vMeKQv3sDf7Jr7zN37qQ-10" source="vMeKQv3sDf7Jr7zN37qQ-13" target="vMeKQv3sDf7Jr7zN37qQ-14">
          <mxGeometry relative="1" as="geometry" />
        </mxCell>
        <mxCell id="vMeKQv3sDf7Jr7zN37qQ-16" value="command queue" style="" vertex="1" parent="vMeKQv3sDf7Jr7zN37qQ-10">
          <mxGeometry x="20" y="325" width="110" height="50" as="geometry" />
        </mxCell>
        <mxCell id="vMeKQv3sDf7Jr7zN37qQ-17" value="" style="endArrow=open;strokeColor=#FF0000;endFill=1;rounded=0" edge="1" parent="vMeKQv3sDf7Jr7zN37qQ-10" source="vMeKQv3sDf7Jr7zN37qQ-14" target="vMeKQv3sDf7Jr7zN37qQ-16">
          <mxGeometry relative="1" as="geometry" />
        </mxCell>
        <mxCell id="vMeKQv3sDf7Jr7zN37qQ-18" value="queue empty" style="rhombus;fillColor=#ffffc0;strokeColor=#ff0000;" vertex="1" parent="vMeKQv3sDf7Jr7zN37qQ-10">
          <mxGeometry x="150" y="225" width="80" height="40" as="geometry" />
        </mxCell>
        <mxCell id="vMeKQv3sDf7Jr7zN37qQ-19" value="yes" style="edgeStyle=elbowEdgeStyle;elbow=horizontal;align=left;verticalAlign=bottom;endArrow=open;endSize=8;strokeColor=#FF0000;exitX=0.5;exitY=0;endFill=1;rounded=0;entryX=0.75;entryY=0.5;entryPerimeter=0" edge="1" parent="vMeKQv3sDf7Jr7zN37qQ-10" source="vMeKQv3sDf7Jr7zN37qQ-18" target="vMeKQv3sDf7Jr7zN37qQ-22">
          <mxGeometry x="-1" relative="1" as="geometry">
            <mxPoint x="160" y="150" as="targetPoint" />
            <Array as="points">
              <mxPoint x="190" y="180" />
            </Array>
          </mxGeometry>
        </mxCell>
        <mxCell id="vMeKQv3sDf7Jr7zN37qQ-20" value="no" style="edgeStyle=elbowEdgeStyle;elbow=horizontal;align=left;verticalAlign=top;endArrow=open;endSize=8;strokeColor=#FF0000;endFill=1;rounded=0" edge="1" parent="vMeKQv3sDf7Jr7zN37qQ-10" source="vMeKQv3sDf7Jr7zN37qQ-18" target="vMeKQv3sDf7Jr7zN37qQ-24">
          <mxGeometry x="-1" relative="1" as="geometry">
            <mxPoint x="190" y="305" as="targetPoint" />
          </mxGeometry>
        </mxCell>
        <mxCell id="vMeKQv3sDf7Jr7zN37qQ-21" value="" style="endArrow=open;strokeColor=#FF0000;endFill=1;rounded=0" edge="1" parent="vMeKQv3sDf7Jr7zN37qQ-10" source="vMeKQv3sDf7Jr7zN37qQ-14" target="vMeKQv3sDf7Jr7zN37qQ-18">
          <mxGeometry relative="1" as="geometry" />
        </mxCell>
        <mxCell id="vMeKQv3sDf7Jr7zN37qQ-22" value="" style="shape=line;strokeWidth=6;strokeColor=#ff0000;rotation=90" vertex="1" parent="vMeKQv3sDf7Jr7zN37qQ-10">
          <mxGeometry x="130" y="127.5" width="50" height="15" as="geometry" />
        </mxCell>
        <mxCell id="vMeKQv3sDf7Jr7zN37qQ-23" value="" style="edgeStyle=elbowEdgeStyle;elbow=horizontal;verticalAlign=bottom;endArrow=open;endSize=8;strokeColor=#FF0000;endFill=1;rounded=0" edge="1" parent="vMeKQv3sDf7Jr7zN37qQ-10" source="vMeKQv3sDf7Jr7zN37qQ-22" target="vMeKQv3sDf7Jr7zN37qQ-13">
          <mxGeometry x="130" y="90" as="geometry">
            <mxPoint x="230" y="140" as="targetPoint" />
          </mxGeometry>
        </mxCell>
        <mxCell id="vMeKQv3sDf7Jr7zN37qQ-24" value="dispatch&#xa;command&#xa;worker thread" style="" vertex="1" parent="vMeKQv3sDf7Jr7zN37qQ-10">
          <mxGeometry x="140" y="325" width="110" height="50" as="geometry" />
        </mxCell>
        <mxCell id="vMeKQv3sDf7Jr7zN37qQ-25" value="critical&#xa;section" style="shape=note;whiteSpace=wrap;size=17" vertex="1" parent="vMeKQv3sDf7Jr7zN37qQ-10">
          <mxGeometry x="105" y="490" width="100" height="50" as="geometry" />
        </mxCell>
        <mxCell id="vMeKQv3sDf7Jr7zN37qQ-26" value="" style="endArrow=none;strokeColor=#FF0000;endFill=0;rounded=0;dashed=1" edge="1" parent="vMeKQv3sDf7Jr7zN37qQ-10" source="vMeKQv3sDf7Jr7zN37qQ-16" target="vMeKQv3sDf7Jr7zN37qQ-25">
          <mxGeometry relative="1" as="geometry" />
        </mxCell>
        <mxCell id="vMeKQv3sDf7Jr7zN37qQ-27" value="" style="whiteSpace=wrap;strokeColor=#FF0000;fillColor=#FF0000" vertex="1" parent="vMeKQv3sDf7Jr7zN37qQ-10">
          <mxGeometry x="245" y="395" width="5" height="45" as="geometry" />
        </mxCell>
        <mxCell id="vMeKQv3sDf7Jr7zN37qQ-28" value="" style="edgeStyle=elbowEdgeStyle;elbow=horizontal;entryX=0;entryY=0.5;strokeColor=#FF0000;endArrow=open;endFill=1;rounded=0" edge="1" parent="vMeKQv3sDf7Jr7zN37qQ-10" source="vMeKQv3sDf7Jr7zN37qQ-24" target="vMeKQv3sDf7Jr7zN37qQ-27">
          <mxGeometry width="100" height="100" relative="1" as="geometry">
            <mxPoint x="60" y="480" as="sourcePoint" />
            <mxPoint x="160" y="380" as="targetPoint" />
            <Array as="points">
              <mxPoint x="195" y="400" />
            </Array>
          </mxGeometry>
        </mxCell>
        <mxCell id="vMeKQv3sDf7Jr7zN37qQ-29" value="Hệ thống" style="swimlane;whiteSpace=wrap" vertex="1" parent="1">
          <mxGeometry x="724.5" y="128" width="280" height="570" as="geometry" />
        </mxCell>
        <mxCell id="vMeKQv3sDf7Jr7zN37qQ-30" value="process&#xa;command" style="" vertex="1" parent="vMeKQv3sDf7Jr7zN37qQ-29">
          <mxGeometry x="90" y="405" width="110" height="50" as="geometry" />
        </mxCell>
        <mxCell id="vMeKQv3sDf7Jr7zN37qQ-31" value="" style="edgeStyle=elbowEdgeStyle;elbow=horizontal;strokeColor=#FF0000;endArrow=open;endFill=1;rounded=0;entryX=0.25;entryY=0.5;entryPerimeter=0" edge="1" parent="vMeKQv3sDf7Jr7zN37qQ-29" target="vMeKQv3sDf7Jr7zN37qQ-22">
          <mxGeometry width="100" height="100" relative="1" as="geometry">
            <mxPoint x="-30" y="410" as="sourcePoint" />
            <mxPoint x="-120" y="120" as="targetPoint" />
            <Array as="points">
              <mxPoint x="-10" y="135" />
            </Array>
          </mxGeometry>
        </mxCell>
        <mxCell id="vMeKQv3sDf7Jr7zN37qQ-32" value="" style="edgeStyle=none;strokeColor=#FF0000;endArrow=open;endFill=1;rounded=0" edge="1" parent="vMeKQv3sDf7Jr7zN37qQ-29" target="vMeKQv3sDf7Jr7zN37qQ-30">
          <mxGeometry width="100" height="100" relative="1" as="geometry">
            <mxPoint x="-30" y="429.5" as="sourcePoint" />
            <mxPoint x="90" y="429.5" as="targetPoint" />
          </mxGeometry>
        </mxCell>
        <mxCell id="vMeKQv3sDf7Jr7zN37qQ-33" value="" style="ellipse;shape=endState;fillColor=#000000;strokeColor=#ff0000" vertex="1" parent="vMeKQv3sDf7Jr7zN37qQ-29">
          <mxGeometry x="130" y="500" width="30" height="30" as="geometry" />
        </mxCell>
        <mxCell id="vMeKQv3sDf7Jr7zN37qQ-34" value="" style="endArrow=open;strokeColor=#FF0000;endFill=1;rounded=0" edge="1" parent="vMeKQv3sDf7Jr7zN37qQ-29" source="vMeKQv3sDf7Jr7zN37qQ-30" target="vMeKQv3sDf7Jr7zN37qQ-33">
          <mxGeometry relative="1" as="geometry" />
        </mxCell>
        <mxCell id="vMeKQv3sDf7Jr7zN37qQ-35" value="" style="endArrow=open;strokeColor=#FF0000;endFill=1;rounded=0" edge="1" parent="1" source="vMeKQv3sDf7Jr7zN37qQ-7" target="vMeKQv3sDf7Jr7zN37qQ-16">
          <mxGeometry relative="1" as="geometry" />
        </mxCell>
      </root>
    </mxGraphModel>
  </diagram>
</mxfile>
